PathFileType	4	(X/Y/Z)	/Users/niels/Desktop/University/Third Semester/Perception and Action/Exam/Gymnastics Motion Tracking/Code for Gym Tracking/Analyzed Data/Webcam_Backflip/id9_2_trajectory_Sports2D/id9_2_trajectory_Sports2D_px_person00.trc
DataRate	CameraRate	NumFrames	NumMarkers	Units	OrigDataRate	OrigDataStartFrame	OrigNumFrames
29.714285714285715	29.714285714285715	9	22	m	29.714285714285715	52	105
Frame#	Time	Hip			RHip			RKnee			RAnkle			RBigToe			RSmallToe			RHeel			LHip			LKnee			LAnkle			LBigToe			LSmallToe			LHeel			Neck			Head			Nose			RShoulder			RElbow			RWrist			LShoulder			LElbow			LWrist		
		X1	Y1	Z1	X2	Y2	Z2	X3	Y3	Z3	X4	Y4	Z4	X5	Y5	Z5	X6	Y6	Z6	X7	Y7	Z7	X8	Y8	Z8	X9	Y9	Z9	X10	Y10	Z10	X11	Y11	Z11	X12	Y12	Z12	X13	Y13	Z13	X14	Y14	Z14	X15	Y15	Z15	X16	Y16	Z16	X17	Y17	Z17	X18	Y18	Z18	X19	Y19	Z19	X20	Y20	Z20	X21	Y21	Z21	X22	Y22	Z22
52	1.75	1.0677549442595742	-0.4056677540448132	0.0	1.094380064585954	-0.3930832319240944	0.0	1.3104982623526145	-0.47406372481091696	0.0	1.489604320093311	-0.6142885728568825	0.0	1.5635032805525795	-0.5970372112909995	0.0	1.568346821060108	-0.6166009421004439	0.0	1.5002781366416915	-0.6413023308806032	0.0	1.0422075557065849	-0.41526286716227406	0.0	1.0916957303770134	-0.6611656261084444	0.0	1.0212275242481994	-0.89629107862843	0.0	1.0863747162683823	-0.9721361689898665	0.0	1.072751327276709	-0.9602012462778031	0.0	0.9963165571827199	-0.9218288609331488	0.0	1.0877425197823145	-0.10561348643752612	0.0	1.190358156821986	-0.029050420815983427	0.0	1.1767265296623746	-0.08423426811299821	0.0	1.0653947922339067	-0.09188986936494725	0.0	1.1864862100738165	-0.03720674679370608	0.0	1.2040254797141678	-0.014097395169481443	0.0	1.0457454756820652	-0.12561913531812666	0.0	1.1198363027283844	-0.2724812857537517	0.0	1.1648003354630172	-0.19368948512452236	0.0
53	1.783653846153846	1.0527807898264105	-0.4223009642764269	0.0	1.0782967676098907	-0.41020967345847514	0.0	1.3065511564760162	-0.44973933098114005	0.0	1.5026144516005797	-0.5633334031978492	0.0	1.5736326431214855	-0.5272607377374438	0.0	1.5785165464110535	-0.5477945547595111	0.0	1.519722085948223	-0.5901798509748215	0.0	1.0303949618745183	-0.433202841317722	0.0	1.0753750982770809	-0.6821835627516825	0.0	1.001165847474465	-0.916622183958958	0.0	1.071110576994156	-0.9922452916788893	0.0	1.0590274569581255	-0.9793204774292058	0.0	0.975088193593463	-0.9411826058571067	0.0	1.071341065332752	-0.12539944950384652	0.0	1.1711924281627442	-0.04441766086900621	0.0	1.1600002382426287	-0.10292202241416974	0.0	1.0565348796448366	-0.11521121771468823	0.0	1.1841766581721342	-0.06937199898171022	0.0	1.2099080608594277	-0.02293241709329512	0.0	1.0229943583635177	-0.14152098641960956	0.0	1.1157540944750992	-0.2640926143515621	0.0	1.159756922007294	-0.1813598365686137	0.0
54	1.8173076923076923	1.0384665154638852	-0.4452851823386311	0.0	1.0624570959214066	-0.4340109904215105	0.0	1.296319022851362	-0.4330534461691252	0.0	1.5037980326206313	-0.5213301123581223	0.0	1.5726070060067452	-0.4697403302229942	0.0	1.577203615196536	-0.49105237160559484	0.0	1.526289032119956	-0.5475973206316135	0.0	1.0198842869732625	-0.4574865368104537	0.0	1.0614822264896042	-0.7081878244122183	0.0	0.9866358798038511	-0.9419664500354669	0.0	1.063265150277638	-1.0141609972033798	0.0	1.0518917207352425	-1.0007725363388371	0.0	0.9593395796401067	-0.9659086680489049	0.0	1.0548319246061915	-0.15243401085280994	0.0	1.1489123105291834	-0.06340521973089189	0.0	1.1418280601243638	-0.1274734798117865	0.0	1.048332564381379	-0.14767876102960373	0.0	1.1794514934953115	-0.11757866746647179	0.0	1.2164387597184472	-0.04687115755845291	0.0	1.0010430038943612	-0.16612959318183784	0.0	1.1133418435514573	-0.2593865533902815	0.0	1.1581009500477621	-0.18433028470416232	0.0
55	1.8509615384615383	1.0244426066243695	-0.473082041752281	0.0	1.046676099406272	-0.4626169406914548	0.0	1.2805163395498733	-0.42542910804473716	0.0	1.491893361356348	-0.49255693352420976	0.0	1.5587989756326075	-0.43047646079851537	0.0	1.5626982316614022	-0.4523548480696643	0.0	1.5177439026750743	-0.5182971689641744	0.0	1.010197746188366	-0.48669269183485325	0.0	1.051028690494136	-0.7367313254244583	0.0	0.9770964390598211	-0.9696147927383278	0.0	1.0611191845172159	-1.034986420640156	0.0	1.0497082134251234	-1.0218165514696356	0.0	0.9485834961732107	-0.9931820536745863	0.0	1.0383667448184382	-0.18418124567267605	0.0	1.125145514158896	-0.08467034574624374	0.0	1.1229251226665922	-0.15558807984447776	0.0	1.038590614597392	-0.186421893387635	0.0	1.1701112967997214	-0.17952962054385133	0.0	1.2198892004437922	-0.0913734764538962	0.0	0.9821356521306452	-0.19762587454507105	0.0	1.111817460219852	-0.26623070105744756	0.0	1.1592906038004422	-0.20602149036447057	0.0
56	1.8846153846153846	1.0104395630046692	-0.5029520251332816	0.0	1.030560584229607	-0.4933851268267491	0.0	1.2607339124961796	-0.4274915960205504	0.0	1.4658813372552568	-0.4799032842552438	0.0	1.5304324240991378	-0.41268697350220634	0.0	1.5332944750401123	-0.4348912992241725	0.0	1.4924480038543602	-0.505418241528105	0.0	1.0008935802577346	-0.5177129124540637	0.0	1.0445212935011392	-0.7642550475286906	0.0	0.9717496103489652	-0.9960198522649232	0.0	1.062166365107267	-1.0518635551057163	0.0	1.0504792041729847	-1.039650279740738	0.0	0.9422612265770939	-1.0192900134782676	0.0	1.0221368153857373	-0.21673094039922422	0.0	1.1018710309372204	-0.10630736615893419	0.0	1.1042733229032153	-0.1841295576046706	0.0	1.025690620671155	-0.22708673949376112	0.0	1.1545911839256937	-0.25009434525107893	0.0	1.2176981206069621	-0.15652702905158095	0.0	0.9670982632115204	-0.23243506625794944	0.0	1.1087057011033477	-0.2890911107346922	0.0	1.161550768365129	-0.24154343640674517	0.0
57	1.9182692307692306	0.9962907978234984	-0.5311806943779612	0.0	1.013766202351028	-0.5230120177481075	0.0	1.2391539312559394	-0.43880874676980924	0.0	1.4251498282104702	-0.4842040256236808	0.0	1.4858761089815584	-0.41648316070075453	0.0	1.4876413155453012	-0.4386247289440042	0.0	1.4496582463498497	-0.5098858196059993	0.0	0.9914516081672005	-0.546155021116646	0.0	1.041678159100351	-0.7868133427011491	0.0	0.9698581259863293	-1.0177050021943364	0.0	1.0644335030393353	-1.0632009097680384	0.0	1.0528451841404352	-1.0525423156434766	0.0	0.9400723561985573	-1.0406947046303507	0.0	1.0065341826347733	-0.24590808417397145	0.0	1.0808280883491752	-0.1260906465421854	0.0	1.086789775162291	-0.20988895518928047	0.0	1.0094524774939018	-0.2648013743586439	0.0	1.1323081962056334	-0.32218232045372075	0.0	1.2091839399609876	-0.2378515646450751	0.0	0.9554762074851809	-0.2659630614677327	0.0	1.1009115415142354	-0.32622795030196067	0.0	1.1616025177739775	-0.28395676852750984	0.0
58	1.9519230769230769	0.9818226749934649	-0.5543169062177458	0.0	0.9963066244442808	-0.5482973529946222	0.0	1.218092633910945	-0.4581475429496351	0.0	1.3708597359036854	-0.504719629277709	0.0	1.425660087009072	-0.43998589972251867	0.0	1.4264532771106508	-0.46139745147851446	0.0	1.3909087042149848	-0.5310617071823679	0.0	0.9812414060790746	-0.5681859666113435	0.0	1.040984199154767	-0.801734690032764	0.0	0.9705368061902295	-1.0325681202091783	0.0	1.0669355796362323	-1.0690268499428073	0.0	1.0562372058811735	-1.0602397117354048	0.0	0.9415600696152515	-1.0553963099999162	0.0	0.9921568800946399	-0.26850109435526776	0.0	1.0629106716237309	-0.1418079870260574	0.0	1.0710134895444108	-0.23008897628399058	0.0	0.9914138908295353	-0.2954792651373051	0.0	1.1043435499750875	-0.3878825282863808	0.0	1.1955123515124204	-0.3274361373264532	0.0	0.9461275771888475	-0.29381447403899436	0.0	1.0863807299750612	-0.37033673373643106	0.0	1.1560014387874435	-0.33079819153558127	0.0
59	1.985576923076923	0.9668927418474509	-0.5704854495055472	0.0	0.9784337408394364	-0.5671838219140294	0.0	1.1992914862255624	-0.4840931622797117	0.0	1.3073005711775505	-0.5408640727356592	0.0	1.3544615857575102	-0.4816451384450612	0.0	1.354297052739647	-0.5014567892236326	0.0	1.321269594353472	-0.5683491674671293	0.0	0.9697549096481136	-0.5821087936140459	0.0	1.0398620440421684	-0.8087907974896452	0.0	0.972490230711894	-1.0405472795324633	0.0	1.0692884817841999	-1.0703936598421135	0.0	1.0602261336442638	-1.0634749649812927	0.0	0.9455110498208548	-1.0635333174085404	0.0	0.9795218749791322	-0.28290114125529625	0.0	1.0479362637858747	-0.15169806782058545	0.0	1.0570418657087757	-0.24279186282423823	0.0	0.9736666084784414	-0.3167884570230782	0.0	1.0730532630970815	-0.44039525489530584	0.0	1.1782809761064266	-0.4146036949708297	0.0	0.9379078312591029	-0.3129800780825919	0.0	1.0654620422568053	-0.41222589836784856	0.0	1.1435120213368413	-0.38137533818460434	0.0
60	2.019230769230769	0.9515634155787592	-0.5796254895299656	0.0	0.9604395542973271	-0.5791135050587842	0.0	1.1827047786652285	-0.515883078888536	0.0	1.2403987849664664	-0.5928508101939658	0.0	1.2793214978735676	-0.5413903535409496	0.0	1.2779497552922698	-0.5590441375963559	0.0	1.247405523395526	-0.6213313665991577	0.0	0.9568368687921408	-0.5883985849983754	0.0	1.0357464340380902	-0.8098205611475372	0.0	0.9741363147288873	-1.0430691059771058	0.0	1.0712947079365807	-1.0686641228002327	0.0	1.0637968953635029	-1.0632935128987402	0.0	0.9500058106471325	-1.06673689089083	0.0	0.9687275890254191	-0.2890725365646595	0.0	1.0350219865565613	-0.15495413895218532	0.0	1.0446672084745146	-0.2473939212214743	0.0	0.9574210049082033	-0.32832751130684323	0.0	1.0404717977189217	-0.47604784832058694	0.0	1.157643380836528	-0.488367395643694	0.0	0.9301994280249978	-0.32252692815330003	0.0	1.0404101845137839	-0.4446172702980162	0.0	1.1252777189878125	-0.4320608162755093	0.0
